<svg id="visual" viewBox="0 0 1366 768" width="1366" height="768" xmlns="http://www.w3.org/2000/svg" xmlns:xlink="http://www.w3.org/1999/xlink" version="1.1"><path d="M722 768L713.5 752C705 736 688 704 679 672C670 640 669 608 649.2 576C629.3 544 590.7 512 569.3 480C548 448 544 416 595.3 384C646.7 352 753.3 320 784.8 288C816.3 256 772.7 224 765.5 192C758.3 160 787.7 128 757.5 96C727.3 64 637.7 32 592.8 16L548 0L1366 0L1366 16C1366 32 1366 64 1366 96C1366 128 1366 160 1366 192C1366 224 1366 256 1366 288C1366 320 1366 352 1366 384C1366 416 1366 448 1366 480C1366 512 1366 544 1366 576C1366 608 1366 640 1366 672C1366 704 1366 736 1366 752L1366 768Z" fill="#0066FF" stroke-linecap="round" stroke-linejoin="miter"></path></svg>